<?xml version="1.0" encoding="utf-8" standalone="no"?>
<!DOCTYPE svg PUBLIC "-//W3C//DTD SVG 1.1//EN"
  "http://www.w3.org/Graphics/SVG/1.1/DTD/svg11.dtd">
<!-- Created with matplotlib (https://matplotlib.org/) -->
<svg height="899.160625pt" version="1.1" viewBox="0 0 1764.950625 899.160625" width="1764.950625pt" xmlns="http://www.w3.org/2000/svg" xmlns:xlink="http://www.w3.org/1999/xlink">
 <defs>
  <style type="text/css">
*{stroke-linecap:butt;stroke-linejoin:round;}
  </style>
 </defs>
 <g id="figure_1">
  <g id="patch_1">
   <path d="M 0 899.160625 
L 1764.950625 899.160625 
L 1764.950625 0 
L 0 0 
z
" style="fill:#ffffff;"/>
  </g>
  <g id="axes_1">
   <g id="patch_2">
    <path d="M 94.140625 824.1975 
L 1732.650625 824.1975 
L 1732.650625 54.9575 
L 94.140625 54.9575 
z
" style="fill:#eee8d5;"/>
   </g>
   <g id="matplotlib.axis_1">
    <g id="xtick_1">
     <g id="line2d_1">
      <path clip-path="url(#p97b1719052)" d="M 122.069773 824.1975 
L 122.069773 54.9575 
" style="fill:none;stroke:#fdf6e3;"/>
     </g>
     <g id="line2d_2">
      <defs>
       <path d="M 0 0 
L 0 3.5 
" id="m4459249cad" style="stroke:#657b83;stroke-width:0.8;"/>
      </defs>
      <g>
       <use style="fill:#657b83;stroke:#657b83;stroke-width:0.8;" x="122.069773" xlink:href="#m4459249cad" y="824.1975"/>
      </g>
     </g>
     <g id="text_1">
      <!-- Sep -->
      <defs>
       <path d="M 53.515625 70.515625 
L 53.515625 60.890625 
Q 47.90625 63.578125 42.921875 64.890625 
Q 37.9375 66.21875 33.296875 66.21875 
Q 25.25 66.21875 20.875 63.09375 
Q 16.5 59.96875 16.5 54.203125 
Q 16.5 49.359375 19.40625 46.890625 
Q 22.3125 44.4375 30.421875 42.921875 
L 36.375 41.703125 
Q 47.40625 39.59375 52.65625 34.296875 
Q 57.90625 29 57.90625 20.125 
Q 57.90625 9.515625 50.796875 4.046875 
Q 43.703125 -1.421875 29.984375 -1.421875 
Q 24.8125 -1.421875 18.96875 -0.25 
Q 13.140625 0.921875 6.890625 3.21875 
L 6.890625 13.375 
Q 12.890625 10.015625 18.65625 8.296875 
Q 24.421875 6.59375 29.984375 6.59375 
Q 38.421875 6.59375 43.015625 9.90625 
Q 47.609375 13.234375 47.609375 19.390625 
Q 47.609375 24.75 44.3125 27.78125 
Q 41.015625 30.8125 33.5 32.328125 
L 27.484375 33.5 
Q 16.453125 35.6875 11.515625 40.375 
Q 6.59375 45.0625 6.59375 53.421875 
Q 6.59375 63.09375 13.40625 68.65625 
Q 20.21875 74.21875 32.171875 74.21875 
Q 37.3125 74.21875 42.625 73.28125 
Q 47.953125 72.359375 53.515625 70.515625 
z
" id="DejaVuSans-83"/>
       <path d="M 56.203125 29.59375 
L 56.203125 25.203125 
L 14.890625 25.203125 
Q 15.484375 15.921875 20.484375 11.0625 
Q 25.484375 6.203125 34.421875 6.203125 
Q 39.59375 6.203125 44.453125 7.46875 
Q 49.3125 8.734375 54.109375 11.28125 
L 54.109375 2.78125 
Q 49.265625 0.734375 44.1875 -0.34375 
Q 39.109375 -1.421875 33.890625 -1.421875 
Q 20.796875 -1.421875 13.15625 6.1875 
Q 5.515625 13.8125 5.515625 26.8125 
Q 5.515625 40.234375 12.765625 48.109375 
Q 20.015625 56 32.328125 56 
Q 43.359375 56 49.78125 48.890625 
Q 56.203125 41.796875 56.203125 29.59375 
z
M 47.21875 32.234375 
Q 47.125 39.59375 43.09375 43.984375 
Q 39.0625 48.390625 32.421875 48.390625 
Q 24.90625 48.390625 20.390625 44.140625 
Q 15.875 39.890625 15.1875 32.171875 
z
" id="DejaVuSans-101"/>
       <path d="M 18.109375 8.203125 
L 18.109375 -20.796875 
L 9.078125 -20.796875 
L 9.078125 54.6875 
L 18.109375 54.6875 
L 18.109375 46.390625 
Q 20.953125 51.265625 25.265625 53.625 
Q 29.59375 56 35.59375 56 
Q 45.5625 56 51.78125 48.09375 
Q 58.015625 40.1875 58.015625 27.296875 
Q 58.015625 14.40625 51.78125 6.484375 
Q 45.5625 -1.421875 35.59375 -1.421875 
Q 29.59375 -1.421875 25.265625 0.953125 
Q 20.953125 3.328125 18.109375 8.203125 
z
M 48.6875 27.296875 
Q 48.6875 37.203125 44.609375 42.84375 
Q 40.53125 48.484375 33.40625 48.484375 
Q 26.265625 48.484375 22.1875 42.84375 
Q 18.109375 37.203125 18.109375 27.296875 
Q 18.109375 17.390625 22.1875 11.75 
Q 26.265625 6.109375 33.40625 6.109375 
Q 40.53125 6.109375 44.609375 11.75 
Q 48.6875 17.390625 48.6875 27.296875 
z
" id="DejaVuSans-112"/>
      </defs>
      <g style="fill:#657b83;" transform="translate(112.644773 838.795938)scale(0.1 -0.1)">
       <use xlink:href="#DejaVuSans-83"/>
       <use x="63.476562" xlink:href="#DejaVuSans-101"/>
       <use x="125" xlink:href="#DejaVuSans-112"/>
      </g>
     </g>
    </g>
    <g id="xtick_2">
     <g id="line2d_3">
      <path clip-path="url(#p97b1719052)" d="M 1518.527159 824.1975 
L 1518.527159 54.9575 
" style="fill:none;stroke:#fdf6e3;"/>
     </g>
     <g id="line2d_4">
      <g>
       <use style="fill:#657b83;stroke:#657b83;stroke-width:0.8;" x="1518.527159" xlink:href="#m4459249cad" y="824.1975"/>
      </g>
     </g>
     <g id="text_2">
      <!-- Oct -->
      <defs>
       <path d="M 39.40625 66.21875 
Q 28.65625 66.21875 22.328125 58.203125 
Q 16.015625 50.203125 16.015625 36.375 
Q 16.015625 22.609375 22.328125 14.59375 
Q 28.65625 6.59375 39.40625 6.59375 
Q 50.140625 6.59375 56.421875 14.59375 
Q 62.703125 22.609375 62.703125 36.375 
Q 62.703125 50.203125 56.421875 58.203125 
Q 50.140625 66.21875 39.40625 66.21875 
z
M 39.40625 74.21875 
Q 54.734375 74.21875 63.90625 63.9375 
Q 73.09375 53.65625 73.09375 36.375 
Q 73.09375 19.140625 63.90625 8.859375 
Q 54.734375 -1.421875 39.40625 -1.421875 
Q 24.03125 -1.421875 14.8125 8.828125 
Q 5.609375 19.09375 5.609375 36.375 
Q 5.609375 53.65625 14.8125 63.9375 
Q 24.03125 74.21875 39.40625 74.21875 
z
" id="DejaVuSans-79"/>
       <path d="M 48.78125 52.59375 
L 48.78125 44.1875 
Q 44.96875 46.296875 41.140625 47.34375 
Q 37.3125 48.390625 33.40625 48.390625 
Q 24.65625 48.390625 19.8125 42.84375 
Q 14.984375 37.3125 14.984375 27.296875 
Q 14.984375 17.28125 19.8125 11.734375 
Q 24.65625 6.203125 33.40625 6.203125 
Q 37.3125 6.203125 41.140625 7.25 
Q 44.96875 8.296875 48.78125 10.40625 
L 48.78125 2.09375 
Q 45.015625 0.34375 40.984375 -0.53125 
Q 36.96875 -1.421875 32.421875 -1.421875 
Q 20.0625 -1.421875 12.78125 6.34375 
Q 5.515625 14.109375 5.515625 27.296875 
Q 5.515625 40.671875 12.859375 48.328125 
Q 20.21875 56 33.015625 56 
Q 37.15625 56 41.109375 55.140625 
Q 45.0625 54.296875 48.78125 52.59375 
z
" id="DejaVuSans-99"/>
       <path d="M 18.3125 70.21875 
L 18.3125 54.6875 
L 36.8125 54.6875 
L 36.8125 47.703125 
L 18.3125 47.703125 
L 18.3125 18.015625 
Q 18.3125 11.328125 20.140625 9.421875 
Q 21.96875 7.515625 27.59375 7.515625 
L 36.8125 7.515625 
L 36.8125 0 
L 27.59375 0 
Q 17.1875 0 13.234375 3.875 
Q 9.28125 7.765625 9.28125 18.015625 
L 9.28125 47.703125 
L 2.6875 47.703125 
L 2.6875 54.6875 
L 9.28125 54.6875 
L 9.28125 70.21875 
z
" id="DejaVuSans-116"/>
      </defs>
      <g style="fill:#657b83;" transform="translate(1509.881847 838.795938)scale(0.1 -0.1)">
       <use xlink:href="#DejaVuSans-79"/>
       <use x="78.710938" xlink:href="#DejaVuSans-99"/>
       <use x="133.691406" xlink:href="#DejaVuSans-116"/>
      </g>
     </g>
    </g>
    <g id="xtick_3">
     <g id="line2d_5">
      <defs>
       <path d="M 0 0 
L 0 2 
" id="m0a19640f07" style="stroke:#657b83;stroke-width:0.6;"/>
      </defs>
      <g>
       <use style="fill:#657b83;stroke:#657b83;stroke-width:0.6;" x="122.069773" xlink:href="#m0a19640f07" y="824.1975"/>
      </g>
     </g>
    </g>
    <g id="xtick_4">
     <g id="line2d_6">
      <g>
       <use style="fill:#657b83;stroke:#657b83;stroke-width:0.6;" x="168.618352" xlink:href="#m0a19640f07" y="824.1975"/>
      </g>
     </g>
    </g>
    <g id="xtick_5">
     <g id="line2d_7">
      <g>
       <use style="fill:#657b83;stroke:#657b83;stroke-width:0.6;" x="215.166932" xlink:href="#m0a19640f07" y="824.1975"/>
      </g>
     </g>
    </g>
    <g id="xtick_6">
     <g id="line2d_8">
      <g>
       <use style="fill:#657b83;stroke:#657b83;stroke-width:0.6;" x="261.715511" xlink:href="#m0a19640f07" y="824.1975"/>
      </g>
     </g>
    </g>
    <g id="xtick_7">
     <g id="line2d_9">
      <g>
       <use style="fill:#657b83;stroke:#657b83;stroke-width:0.6;" x="308.264091" xlink:href="#m0a19640f07" y="824.1975"/>
      </g>
     </g>
    </g>
    <g id="xtick_8">
     <g id="line2d_10">
      <g>
       <use style="fill:#657b83;stroke:#657b83;stroke-width:0.6;" x="354.81267" xlink:href="#m0a19640f07" y="824.1975"/>
      </g>
     </g>
    </g>
    <g id="xtick_9">
     <g id="line2d_11">
      <g>
       <use style="fill:#657b83;stroke:#657b83;stroke-width:0.6;" x="401.36125" xlink:href="#m0a19640f07" y="824.1975"/>
      </g>
     </g>
    </g>
    <g id="xtick_10">
     <g id="line2d_12">
      <g>
       <use style="fill:#657b83;stroke:#657b83;stroke-width:0.6;" x="447.90983" xlink:href="#m0a19640f07" y="824.1975"/>
      </g>
     </g>
    </g>
    <g id="xtick_11">
     <g id="line2d_13">
      <g>
       <use style="fill:#657b83;stroke:#657b83;stroke-width:0.6;" x="494.458409" xlink:href="#m0a19640f07" y="824.1975"/>
      </g>
     </g>
    </g>
    <g id="xtick_12">
     <g id="line2d_14">
      <g>
       <use style="fill:#657b83;stroke:#657b83;stroke-width:0.6;" x="541.006989" xlink:href="#m0a19640f07" y="824.1975"/>
      </g>
     </g>
    </g>
    <g id="xtick_13">
     <g id="line2d_15">
      <g>
       <use style="fill:#657b83;stroke:#657b83;stroke-width:0.6;" x="587.555568" xlink:href="#m0a19640f07" y="824.1975"/>
      </g>
     </g>
    </g>
    <g id="xtick_14">
     <g id="line2d_16">
      <g>
       <use style="fill:#657b83;stroke:#657b83;stroke-width:0.6;" x="634.104148" xlink:href="#m0a19640f07" y="824.1975"/>
      </g>
     </g>
    </g>
    <g id="xtick_15">
     <g id="line2d_17">
      <g>
       <use style="fill:#657b83;stroke:#657b83;stroke-width:0.6;" x="680.652727" xlink:href="#m0a19640f07" y="824.1975"/>
      </g>
     </g>
    </g>
    <g id="xtick_16">
     <g id="line2d_18">
      <g>
       <use style="fill:#657b83;stroke:#657b83;stroke-width:0.6;" x="727.201307" xlink:href="#m0a19640f07" y="824.1975"/>
      </g>
     </g>
    </g>
    <g id="xtick_17">
     <g id="line2d_19">
      <g>
       <use style="fill:#657b83;stroke:#657b83;stroke-width:0.6;" x="773.749886" xlink:href="#m0a19640f07" y="824.1975"/>
      </g>
     </g>
    </g>
    <g id="xtick_18">
     <g id="line2d_20">
      <g>
       <use style="fill:#657b83;stroke:#657b83;stroke-width:0.6;" x="820.298466" xlink:href="#m0a19640f07" y="824.1975"/>
      </g>
     </g>
    </g>
    <g id="xtick_19">
     <g id="line2d_21">
      <g>
       <use style="fill:#657b83;stroke:#657b83;stroke-width:0.6;" x="866.847045" xlink:href="#m0a19640f07" y="824.1975"/>
      </g>
     </g>
    </g>
    <g id="xtick_20">
     <g id="line2d_22">
      <g>
       <use style="fill:#657b83;stroke:#657b83;stroke-width:0.6;" x="913.395625" xlink:href="#m0a19640f07" y="824.1975"/>
      </g>
     </g>
    </g>
    <g id="xtick_21">
     <g id="line2d_23">
      <g>
       <use style="fill:#657b83;stroke:#657b83;stroke-width:0.6;" x="959.944205" xlink:href="#m0a19640f07" y="824.1975"/>
      </g>
     </g>
    </g>
    <g id="xtick_22">
     <g id="line2d_24">
      <g>
       <use style="fill:#657b83;stroke:#657b83;stroke-width:0.6;" x="1006.492784" xlink:href="#m0a19640f07" y="824.1975"/>
      </g>
     </g>
    </g>
    <g id="xtick_23">
     <g id="line2d_25">
      <g>
       <use style="fill:#657b83;stroke:#657b83;stroke-width:0.6;" x="1053.041364" xlink:href="#m0a19640f07" y="824.1975"/>
      </g>
     </g>
    </g>
    <g id="xtick_24">
     <g id="line2d_26">
      <g>
       <use style="fill:#657b83;stroke:#657b83;stroke-width:0.6;" x="1099.589943" xlink:href="#m0a19640f07" y="824.1975"/>
      </g>
     </g>
    </g>
    <g id="xtick_25">
     <g id="line2d_27">
      <g>
       <use style="fill:#657b83;stroke:#657b83;stroke-width:0.6;" x="1146.138523" xlink:href="#m0a19640f07" y="824.1975"/>
      </g>
     </g>
    </g>
    <g id="xtick_26">
     <g id="line2d_28">
      <g>
       <use style="fill:#657b83;stroke:#657b83;stroke-width:0.6;" x="1192.687102" xlink:href="#m0a19640f07" y="824.1975"/>
      </g>
     </g>
    </g>
    <g id="xtick_27">
     <g id="line2d_29">
      <g>
       <use style="fill:#657b83;stroke:#657b83;stroke-width:0.6;" x="1239.235682" xlink:href="#m0a19640f07" y="824.1975"/>
      </g>
     </g>
    </g>
    <g id="xtick_28">
     <g id="line2d_30">
      <g>
       <use style="fill:#657b83;stroke:#657b83;stroke-width:0.6;" x="1285.784261" xlink:href="#m0a19640f07" y="824.1975"/>
      </g>
     </g>
    </g>
    <g id="xtick_29">
     <g id="line2d_31">
      <g>
       <use style="fill:#657b83;stroke:#657b83;stroke-width:0.6;" x="1332.332841" xlink:href="#m0a19640f07" y="824.1975"/>
      </g>
     </g>
    </g>
    <g id="xtick_30">
     <g id="line2d_32">
      <g>
       <use style="fill:#657b83;stroke:#657b83;stroke-width:0.6;" x="1378.88142" xlink:href="#m0a19640f07" y="824.1975"/>
      </g>
     </g>
    </g>
    <g id="xtick_31">
     <g id="line2d_33">
      <g>
       <use style="fill:#657b83;stroke:#657b83;stroke-width:0.6;" x="1425.43" xlink:href="#m0a19640f07" y="824.1975"/>
      </g>
     </g>
    </g>
    <g id="xtick_32">
     <g id="line2d_34">
      <g>
       <use style="fill:#657b83;stroke:#657b83;stroke-width:0.6;" x="1471.97858" xlink:href="#m0a19640f07" y="824.1975"/>
      </g>
     </g>
    </g>
    <g id="xtick_33">
     <g id="line2d_35">
      <g>
       <use style="fill:#657b83;stroke:#657b83;stroke-width:0.6;" x="1518.527159" xlink:href="#m0a19640f07" y="824.1975"/>
      </g>
     </g>
    </g>
    <g id="xtick_34">
     <g id="line2d_36">
      <g>
       <use style="fill:#657b83;stroke:#657b83;stroke-width:0.6;" x="1565.075739" xlink:href="#m0a19640f07" y="824.1975"/>
      </g>
     </g>
    </g>
    <g id="xtick_35">
     <g id="line2d_37">
      <g>
       <use style="fill:#657b83;stroke:#657b83;stroke-width:0.6;" x="1611.624318" xlink:href="#m0a19640f07" y="824.1975"/>
      </g>
     </g>
    </g>
    <g id="xtick_36">
     <g id="line2d_38">
      <g>
       <use style="fill:#657b83;stroke:#657b83;stroke-width:0.6;" x="1658.172898" xlink:href="#m0a19640f07" y="824.1975"/>
      </g>
     </g>
    </g>
    <g id="xtick_37">
     <g id="line2d_39">
      <g>
       <use style="fill:#657b83;stroke:#657b83;stroke-width:0.6;" x="1704.721477" xlink:href="#m0a19640f07" y="824.1975"/>
      </g>
     </g>
    </g>
    <g id="text_3">
     <!-- Time -->
     <defs>
      <path d="M 19.09375 0 
L 19.09375 5.171875 
L 28.421875 5.171875 
L 28.421875 67.09375 
L 6.984375 67.09375 
L 6.984375 55.71875 
L 0.984375 55.71875 
L 0.984375 72.90625 
L 65.71875 72.90625 
L 65.71875 55.71875 
L 59.71875 55.71875 
L 59.71875 67.09375 
L 38.28125 67.09375 
L 38.28125 5.171875 
L 47.609375 5.171875 
L 47.609375 0 
z
" id="DejaVuSerif-84"/>
      <path d="M 9.71875 68.015625 
Q 9.71875 70.265625 11.34375 71.921875 
Q 12.984375 73.578125 15.28125 73.578125 
Q 17.53125 73.578125 19.15625 71.921875 
Q 20.796875 70.265625 20.796875 68.015625 
Q 20.796875 65.71875 19.1875 64.109375 
Q 17.578125 62.5 15.28125 62.5 
Q 12.984375 62.5 11.34375 64.109375 
Q 9.71875 65.71875 9.71875 68.015625 
z
M 21.1875 5.171875 
L 29.6875 5.171875 
L 29.6875 0 
L 3.609375 0 
L 3.609375 5.171875 
L 12.203125 5.171875 
L 12.203125 46.6875 
L 3.609375 46.6875 
L 3.609375 51.90625 
L 21.1875 51.90625 
z
" id="DejaVuSerif-105"/>
      <path d="M 51.8125 41.796875 
Q 54.390625 47.515625 58.421875 50.421875 
Q 62.453125 53.328125 67.828125 53.328125 
Q 75.984375 53.328125 79.984375 48.265625 
Q 83.984375 43.21875 83.984375 33.015625 
L 83.984375 5.171875 
L 92.09375 5.171875 
L 92.09375 0 
L 67.1875 0 
L 67.1875 5.171875 
L 75 5.171875 
L 75 31.984375 
Q 75 39.9375 72.65625 43.3125 
Q 70.3125 46.6875 64.890625 46.6875 
Q 58.890625 46.6875 55.734375 42.140625 
Q 52.59375 37.59375 52.59375 28.90625 
L 52.59375 5.171875 
L 60.40625 5.171875 
L 60.40625 0 
L 35.796875 0 
L 35.796875 5.171875 
L 43.609375 5.171875 
L 43.609375 32.328125 
Q 43.609375 40.09375 41.265625 43.390625 
Q 38.921875 46.6875 33.5 46.6875 
Q 27.484375 46.6875 24.328125 42.140625 
Q 21.1875 37.59375 21.1875 28.90625 
L 21.1875 5.171875 
L 29 5.171875 
L 29 0 
L 4.109375 0 
L 4.109375 5.171875 
L 12.203125 5.171875 
L 12.203125 46.78125 
L 3.609375 46.78125 
L 3.609375 51.90625 
L 21.1875 51.90625 
L 21.1875 42.671875 
Q 23.6875 47.859375 27.53125 50.59375 
Q 31.390625 53.328125 36.28125 53.328125 
Q 42.328125 53.328125 46.375 50.3125 
Q 50.4375 47.3125 51.8125 41.796875 
z
" id="DejaVuSerif-109"/>
      <path d="M 54.203125 25 
L 15.484375 25 
L 15.484375 24.609375 
Q 15.484375 14.109375 19.4375 8.765625 
Q 23.390625 3.421875 31.109375 3.421875 
Q 37.015625 3.421875 40.796875 6.515625 
Q 44.578125 9.625 46.09375 15.71875 
L 53.328125 15.71875 
Q 51.171875 7.171875 45.375 2.875 
Q 39.59375 -1.421875 30.171875 -1.421875 
Q 18.796875 -1.421875 11.890625 6.078125 
Q 4.984375 13.578125 4.984375 25.984375 
Q 4.984375 38.28125 11.765625 45.796875 
Q 18.5625 53.328125 29.59375 53.328125 
Q 41.359375 53.328125 47.65625 46.0625 
Q 53.953125 38.8125 54.203125 25 
z
M 43.609375 30.171875 
Q 43.3125 39.265625 39.765625 43.875 
Q 36.234375 48.484375 29.59375 48.484375 
Q 23.390625 48.484375 19.828125 43.84375 
Q 16.265625 39.203125 15.484375 30.171875 
z
" id="DejaVuSerif-101"/>
     </defs>
     <g transform="translate(893.179375 867.033125)scale(0.16 -0.16)">
      <use xlink:href="#DejaVuSerif-84"/>
      <use x="66.699219" xlink:href="#DejaVuSerif-105"/>
      <use x="98.681641" xlink:href="#DejaVuSerif-109"/>
      <use x="193.505859" xlink:href="#DejaVuSerif-101"/>
     </g>
    </g>
   </g>
   <g id="matplotlib.axis_2">
    <g id="ytick_1">
     <g id="line2d_40">
      <path clip-path="url(#p97b1719052)" d="M 94.140625 811.587008 
L 1732.650625 811.587008 
" style="fill:none;stroke:#fdf6e3;"/>
     </g>
     <g id="line2d_41">
      <defs>
       <path d="M 0 0 
L -3.5 0 
" id="mcd2fe3bd1e" style="stroke:#657b83;stroke-width:0.8;"/>
      </defs>
      <g>
       <use style="fill:#657b83;stroke:#657b83;stroke-width:0.8;" x="94.140625" xlink:href="#mcd2fe3bd1e" y="811.587008"/>
      </g>
     </g>
     <g id="text_4">
      <!-- 0.0 -->
      <defs>
       <path d="M 31.78125 66.40625 
Q 24.171875 66.40625 20.328125 58.90625 
Q 16.5 51.421875 16.5 36.375 
Q 16.5 21.390625 20.328125 13.890625 
Q 24.171875 6.390625 31.78125 6.390625 
Q 39.453125 6.390625 43.28125 13.890625 
Q 47.125 21.390625 47.125 36.375 
Q 47.125 51.421875 43.28125 58.90625 
Q 39.453125 66.40625 31.78125 66.40625 
z
M 31.78125 74.21875 
Q 44.046875 74.21875 50.515625 64.515625 
Q 56.984375 54.828125 56.984375 36.375 
Q 56.984375 17.96875 50.515625 8.265625 
Q 44.046875 -1.421875 31.78125 -1.421875 
Q 19.53125 -1.421875 13.0625 8.265625 
Q 6.59375 17.96875 6.59375 36.375 
Q 6.59375 54.828125 13.0625 64.515625 
Q 19.53125 74.21875 31.78125 74.21875 
z
" id="DejaVuSans-48"/>
       <path d="M 10.6875 12.40625 
L 21 12.40625 
L 21 0 
L 10.6875 0 
z
" id="DejaVuSans-46"/>
      </defs>
      <g style="fill:#657b83;" transform="translate(71.2375 815.386227)scale(0.1 -0.1)">
       <use xlink:href="#DejaVuSans-48"/>
       <use x="63.623047" xlink:href="#DejaVuSans-46"/>
       <use x="95.410156" xlink:href="#DejaVuSans-48"/>
      </g>
     </g>
    </g>
    <g id="ytick_2">
     <g id="line2d_42">
      <path clip-path="url(#p97b1719052)" d="M 94.140625 761.145041 
L 1732.650625 761.145041 
" style="fill:none;stroke:#fdf6e3;"/>
     </g>
     <g id="line2d_43">
      <g>
       <use style="fill:#657b83;stroke:#657b83;stroke-width:0.8;" x="94.140625" xlink:href="#mcd2fe3bd1e" y="761.145041"/>
      </g>
     </g>
     <g id="text_5">
      <!-- 20.0 -->
      <defs>
       <path d="M 19.1875 8.296875 
L 53.609375 8.296875 
L 53.609375 0 
L 7.328125 0 
L 7.328125 8.296875 
Q 12.9375 14.109375 22.625 23.890625 
Q 32.328125 33.6875 34.8125 36.53125 
Q 39.546875 41.84375 41.421875 45.53125 
Q 43.3125 49.21875 43.3125 52.78125 
Q 43.3125 58.59375 39.234375 62.25 
Q 35.15625 65.921875 28.609375 65.921875 
Q 23.96875 65.921875 18.8125 64.3125 
Q 13.671875 62.703125 7.8125 59.421875 
L 7.8125 69.390625 
Q 13.765625 71.78125 18.9375 73 
Q 24.125 74.21875 28.421875 74.21875 
Q 39.75 74.21875 46.484375 68.546875 
Q 53.21875 62.890625 53.21875 53.421875 
Q 53.21875 48.921875 51.53125 44.890625 
Q 49.859375 40.875 45.40625 35.40625 
Q 44.1875 33.984375 37.640625 27.21875 
Q 31.109375 20.453125 19.1875 8.296875 
z
" id="DejaVuSans-50"/>
      </defs>
      <g style="fill:#657b83;" transform="translate(64.875 764.94426)scale(0.1 -0.1)">
       <use xlink:href="#DejaVuSans-50"/>
       <use x="63.623047" xlink:href="#DejaVuSans-48"/>
       <use x="127.246094" xlink:href="#DejaVuSans-46"/>
       <use x="159.033203" xlink:href="#DejaVuSans-48"/>
      </g>
     </g>
    </g>
    <g id="ytick_3">
     <g id="line2d_44">
      <path clip-path="url(#p97b1719052)" d="M 94.140625 710.703074 
L 1732.650625 710.703074 
" style="fill:none;stroke:#fdf6e3;"/>
     </g>
     <g id="line2d_45">
      <g>
       <use style="fill:#657b83;stroke:#657b83;stroke-width:0.8;" x="94.140625" xlink:href="#mcd2fe3bd1e" y="710.703074"/>
      </g>
     </g>
     <g id="text_6">
      <!-- 40.0 -->
      <defs>
       <path d="M 37.796875 64.3125 
L 12.890625 25.390625 
L 37.796875 25.390625 
z
M 35.203125 72.90625 
L 47.609375 72.90625 
L 47.609375 25.390625 
L 58.015625 25.390625 
L 58.015625 17.1875 
L 47.609375 17.1875 
L 47.609375 0 
L 37.796875 0 
L 37.796875 17.1875 
L 4.890625 17.1875 
L 4.890625 26.703125 
z
" id="DejaVuSans-52"/>
      </defs>
      <g style="fill:#657b83;" transform="translate(64.875 714.502293)scale(0.1 -0.1)">
       <use xlink:href="#DejaVuSans-52"/>
       <use x="63.623047" xlink:href="#DejaVuSans-48"/>
       <use x="127.246094" xlink:href="#DejaVuSans-46"/>
       <use x="159.033203" xlink:href="#DejaVuSans-48"/>
      </g>
     </g>
    </g>
    <g id="ytick_4">
     <g id="line2d_46">
      <path clip-path="url(#p97b1719052)" d="M 94.140625 660.261107 
L 1732.650625 660.261107 
" style="fill:none;stroke:#fdf6e3;"/>
     </g>
     <g id="line2d_47">
      <g>
       <use style="fill:#657b83;stroke:#657b83;stroke-width:0.8;" x="94.140625" xlink:href="#mcd2fe3bd1e" y="660.261107"/>
      </g>
     </g>
     <g id="text_7">
      <!-- 60.0 -->
      <defs>
       <path d="M 33.015625 40.375 
Q 26.375 40.375 22.484375 35.828125 
Q 18.609375 31.296875 18.609375 23.390625 
Q 18.609375 15.53125 22.484375 10.953125 
Q 26.375 6.390625 33.015625 6.390625 
Q 39.65625 6.390625 43.53125 10.953125 
Q 47.40625 15.53125 47.40625 23.390625 
Q 47.40625 31.296875 43.53125 35.828125 
Q 39.65625 40.375 33.015625 40.375 
z
M 52.59375 71.296875 
L 52.59375 62.3125 
Q 48.875 64.0625 45.09375 64.984375 
Q 41.3125 65.921875 37.59375 65.921875 
Q 27.828125 65.921875 22.671875 59.328125 
Q 17.53125 52.734375 16.796875 39.40625 
Q 19.671875 43.65625 24.015625 45.921875 
Q 28.375 48.1875 33.59375 48.1875 
Q 44.578125 48.1875 50.953125 41.515625 
Q 57.328125 34.859375 57.328125 23.390625 
Q 57.328125 12.15625 50.6875 5.359375 
Q 44.046875 -1.421875 33.015625 -1.421875 
Q 20.359375 -1.421875 13.671875 8.265625 
Q 6.984375 17.96875 6.984375 36.375 
Q 6.984375 53.65625 15.1875 63.9375 
Q 23.390625 74.21875 37.203125 74.21875 
Q 40.921875 74.21875 44.703125 73.484375 
Q 48.484375 72.75 52.59375 71.296875 
z
" id="DejaVuSans-54"/>
      </defs>
      <g style="fill:#657b83;" transform="translate(64.875 664.060325)scale(0.1 -0.1)">
       <use xlink:href="#DejaVuSans-54"/>
       <use x="63.623047" xlink:href="#DejaVuSans-48"/>
       <use x="127.246094" xlink:href="#DejaVuSans-46"/>
       <use x="159.033203" xlink:href="#DejaVuSans-48"/>
      </g>
     </g>
    </g>
    <g id="ytick_5">
     <g id="line2d_48">
      <path clip-path="url(#p97b1719052)" d="M 94.140625 609.819139 
L 1732.650625 609.819139 
" style="fill:none;stroke:#fdf6e3;"/>
     </g>
     <g id="line2d_49">
      <g>
       <use style="fill:#657b83;stroke:#657b83;stroke-width:0.8;" x="94.140625" xlink:href="#mcd2fe3bd1e" y="609.819139"/>
      </g>
     </g>
     <g id="text_8">
      <!-- 80.0 -->
      <defs>
       <path d="M 31.78125 34.625 
Q 24.75 34.625 20.71875 30.859375 
Q 16.703125 27.09375 16.703125 20.515625 
Q 16.703125 13.921875 20.71875 10.15625 
Q 24.75 6.390625 31.78125 6.390625 
Q 38.8125 6.390625 42.859375 10.171875 
Q 46.921875 13.96875 46.921875 20.515625 
Q 46.921875 27.09375 42.890625 30.859375 
Q 38.875 34.625 31.78125 34.625 
z
M 21.921875 38.8125 
Q 15.578125 40.375 12.03125 44.71875 
Q 8.5 49.078125 8.5 55.328125 
Q 8.5 64.0625 14.71875 69.140625 
Q 20.953125 74.21875 31.78125 74.21875 
Q 42.671875 74.21875 48.875 69.140625 
Q 55.078125 64.0625 55.078125 55.328125 
Q 55.078125 49.078125 51.53125 44.71875 
Q 48 40.375 41.703125 38.8125 
Q 48.828125 37.15625 52.796875 32.3125 
Q 56.78125 27.484375 56.78125 20.515625 
Q 56.78125 9.90625 50.3125 4.234375 
Q 43.84375 -1.421875 31.78125 -1.421875 
Q 19.734375 -1.421875 13.25 4.234375 
Q 6.78125 9.90625 6.78125 20.515625 
Q 6.78125 27.484375 10.78125 32.3125 
Q 14.796875 37.15625 21.921875 38.8125 
z
M 18.3125 54.390625 
Q 18.3125 48.734375 21.84375 45.5625 
Q 25.390625 42.390625 31.78125 42.390625 
Q 38.140625 42.390625 41.71875 45.5625 
Q 45.3125 48.734375 45.3125 54.390625 
Q 45.3125 60.0625 41.71875 63.234375 
Q 38.140625 66.40625 31.78125 66.40625 
Q 25.390625 66.40625 21.84375 63.234375 
Q 18.3125 60.0625 18.3125 54.390625 
z
" id="DejaVuSans-56"/>
      </defs>
      <g style="fill:#657b83;" transform="translate(64.875 613.618358)scale(0.1 -0.1)">
       <use xlink:href="#DejaVuSans-56"/>
       <use x="63.623047" xlink:href="#DejaVuSans-48"/>
       <use x="127.246094" xlink:href="#DejaVuSans-46"/>
       <use x="159.033203" xlink:href="#DejaVuSans-48"/>
      </g>
     </g>
    </g>
    <g id="ytick_6">
     <g id="line2d_50">
      <path clip-path="url(#p97b1719052)" d="M 94.140625 559.377172 
L 1732.650625 559.377172 
" style="fill:none;stroke:#fdf6e3;"/>
     </g>
     <g id="line2d_51">
      <g>
       <use style="fill:#657b83;stroke:#657b83;stroke-width:0.8;" x="94.140625" xlink:href="#mcd2fe3bd1e" y="559.377172"/>
      </g>
     </g>
     <g id="text_9">
      <!-- 100.0 -->
      <defs>
       <path d="M 12.40625 8.296875 
L 28.515625 8.296875 
L 28.515625 63.921875 
L 10.984375 60.40625 
L 10.984375 69.390625 
L 28.421875 72.90625 
L 38.28125 72.90625 
L 38.28125 8.296875 
L 54.390625 8.296875 
L 54.390625 0 
L 12.40625 0 
z
" id="DejaVuSans-49"/>
      </defs>
      <g style="fill:#657b83;" transform="translate(58.5125 563.176391)scale(0.1 -0.1)">
       <use xlink:href="#DejaVuSans-49"/>
       <use x="63.623047" xlink:href="#DejaVuSans-48"/>
       <use x="127.246094" xlink:href="#DejaVuSans-48"/>
       <use x="190.869141" xlink:href="#DejaVuSans-46"/>
       <use x="222.65625" xlink:href="#DejaVuSans-48"/>
      </g>
     </g>
    </g>
    <g id="ytick_7">
     <g id="line2d_52">
      <path clip-path="url(#p97b1719052)" d="M 94.140625 508.935205 
L 1732.650625 508.935205 
" style="fill:none;stroke:#fdf6e3;"/>
     </g>
     <g id="line2d_53">
      <g>
       <use style="fill:#657b83;stroke:#657b83;stroke-width:0.8;" x="94.140625" xlink:href="#mcd2fe3bd1e" y="508.935205"/>
      </g>
     </g>
     <g id="text_10">
      <!-- 120.0 -->
      <g style="fill:#657b83;" transform="translate(58.5125 512.734424)scale(0.1 -0.1)">
       <use xlink:href="#DejaVuSans-49"/>
       <use x="63.623047" xlink:href="#DejaVuSans-50"/>
       <use x="127.246094" xlink:href="#DejaVuSans-48"/>
       <use x="190.869141" xlink:href="#DejaVuSans-46"/>
       <use x="222.65625" xlink:href="#DejaVuSans-48"/>
      </g>
     </g>
    </g>
    <g id="ytick_8">
     <g id="line2d_54">
      <path clip-path="url(#p97b1719052)" d="M 94.140625 458.493238 
L 1732.650625 458.493238 
" style="fill:none;stroke:#fdf6e3;"/>
     </g>
     <g id="line2d_55">
      <g>
       <use style="fill:#657b83;stroke:#657b83;stroke-width:0.8;" x="94.140625" xlink:href="#mcd2fe3bd1e" y="458.493238"/>
      </g>
     </g>
     <g id="text_11">
      <!-- 140.0 -->
      <g style="fill:#657b83;" transform="translate(58.5125 462.292456)scale(0.1 -0.1)">
       <use xlink:href="#DejaVuSans-49"/>
       <use x="63.623047" xlink:href="#DejaVuSans-52"/>
       <use x="127.246094" xlink:href="#DejaVuSans-48"/>
       <use x="190.869141" xlink:href="#DejaVuSans-46"/>
       <use x="222.65625" xlink:href="#DejaVuSans-48"/>
      </g>
     </g>
    </g>
    <g id="ytick_9">
     <g id="line2d_56">
      <path clip-path="url(#p97b1719052)" d="M 94.140625 408.05127 
L 1732.650625 408.05127 
" style="fill:none;stroke:#fdf6e3;"/>
     </g>
     <g id="line2d_57">
      <g>
       <use style="fill:#657b83;stroke:#657b83;stroke-width:0.8;" x="94.140625" xlink:href="#mcd2fe3bd1e" y="408.05127"/>
      </g>
     </g>
     <g id="text_12">
      <!-- 160.0 -->
      <g style="fill:#657b83;" transform="translate(58.5125 411.850489)scale(0.1 -0.1)">
       <use xlink:href="#DejaVuSans-49"/>
       <use x="63.623047" xlink:href="#DejaVuSans-54"/>
       <use x="127.246094" xlink:href="#DejaVuSans-48"/>
       <use x="190.869141" xlink:href="#DejaVuSans-46"/>
       <use x="222.65625" xlink:href="#DejaVuSans-48"/>
      </g>
     </g>
    </g>
    <g id="ytick_10">
     <g id="line2d_58">
      <path clip-path="url(#p97b1719052)" d="M 94.140625 357.609303 
L 1732.650625 357.609303 
" style="fill:none;stroke:#fdf6e3;"/>
     </g>
     <g id="line2d_59">
      <g>
       <use style="fill:#657b83;stroke:#657b83;stroke-width:0.8;" x="94.140625" xlink:href="#mcd2fe3bd1e" y="357.609303"/>
      </g>
     </g>
     <g id="text_13">
      <!-- 180.0 -->
      <g style="fill:#657b83;" transform="translate(58.5125 361.408522)scale(0.1 -0.1)">
       <use xlink:href="#DejaVuSans-49"/>
       <use x="63.623047" xlink:href="#DejaVuSans-56"/>
       <use x="127.246094" xlink:href="#DejaVuSans-48"/>
       <use x="190.869141" xlink:href="#DejaVuSans-46"/>
       <use x="222.65625" xlink:href="#DejaVuSans-48"/>
      </g>
     </g>
    </g>
    <g id="ytick_11">
     <g id="line2d_60">
      <path clip-path="url(#p97b1719052)" d="M 94.140625 307.167336 
L 1732.650625 307.167336 
" style="fill:none;stroke:#fdf6e3;"/>
     </g>
     <g id="line2d_61">
      <g>
       <use style="fill:#657b83;stroke:#657b83;stroke-width:0.8;" x="94.140625" xlink:href="#mcd2fe3bd1e" y="307.167336"/>
      </g>
     </g>
     <g id="text_14">
      <!-- 200.0 -->
      <g style="fill:#657b83;" transform="translate(58.5125 310.966555)scale(0.1 -0.1)">
       <use xlink:href="#DejaVuSans-50"/>
       <use x="63.623047" xlink:href="#DejaVuSans-48"/>
       <use x="127.246094" xlink:href="#DejaVuSans-48"/>
       <use x="190.869141" xlink:href="#DejaVuSans-46"/>
       <use x="222.65625" xlink:href="#DejaVuSans-48"/>
      </g>
     </g>
    </g>
    <g id="ytick_12">
     <g id="line2d_62">
      <path clip-path="url(#p97b1719052)" d="M 94.140625 256.725369 
L 1732.650625 256.725369 
" style="fill:none;stroke:#fdf6e3;"/>
     </g>
     <g id="line2d_63">
      <g>
       <use style="fill:#657b83;stroke:#657b83;stroke-width:0.8;" x="94.140625" xlink:href="#mcd2fe3bd1e" y="256.725369"/>
      </g>
     </g>
     <g id="text_15">
      <!-- 220.0 -->
      <g style="fill:#657b83;" transform="translate(58.5125 260.524588)scale(0.1 -0.1)">
       <use xlink:href="#DejaVuSans-50"/>
       <use x="63.623047" xlink:href="#DejaVuSans-50"/>
       <use x="127.246094" xlink:href="#DejaVuSans-48"/>
       <use x="190.869141" xlink:href="#DejaVuSans-46"/>
       <use x="222.65625" xlink:href="#DejaVuSans-48"/>
      </g>
     </g>
    </g>
    <g id="ytick_13">
     <g id="line2d_64">
      <path clip-path="url(#p97b1719052)" d="M 94.140625 206.283402 
L 1732.650625 206.283402 
" style="fill:none;stroke:#fdf6e3;"/>
     </g>
     <g id="line2d_65">
      <g>
       <use style="fill:#657b83;stroke:#657b83;stroke-width:0.8;" x="94.140625" xlink:href="#mcd2fe3bd1e" y="206.283402"/>
      </g>
     </g>
     <g id="text_16">
      <!-- 240.0 -->
      <g style="fill:#657b83;" transform="translate(58.5125 210.08262)scale(0.1 -0.1)">
       <use xlink:href="#DejaVuSans-50"/>
       <use x="63.623047" xlink:href="#DejaVuSans-52"/>
       <use x="127.246094" xlink:href="#DejaVuSans-48"/>
       <use x="190.869141" xlink:href="#DejaVuSans-46"/>
       <use x="222.65625" xlink:href="#DejaVuSans-48"/>
      </g>
     </g>
    </g>
    <g id="ytick_14">
     <g id="line2d_66">
      <path clip-path="url(#p97b1719052)" d="M 94.140625 155.841434 
L 1732.650625 155.841434 
" style="fill:none;stroke:#fdf6e3;"/>
     </g>
     <g id="line2d_67">
      <g>
       <use style="fill:#657b83;stroke:#657b83;stroke-width:0.8;" x="94.140625" xlink:href="#mcd2fe3bd1e" y="155.841434"/>
      </g>
     </g>
     <g id="text_17">
      <!-- 260.0 -->
      <g style="fill:#657b83;" transform="translate(58.5125 159.640653)scale(0.1 -0.1)">
       <use xlink:href="#DejaVuSans-50"/>
       <use x="63.623047" xlink:href="#DejaVuSans-54"/>
       <use x="127.246094" xlink:href="#DejaVuSans-48"/>
       <use x="190.869141" xlink:href="#DejaVuSans-46"/>
       <use x="222.65625" xlink:href="#DejaVuSans-48"/>
      </g>
     </g>
    </g>
    <g id="ytick_15">
     <g id="line2d_68">
      <path clip-path="url(#p97b1719052)" d="M 94.140625 105.399467 
L 1732.650625 105.399467 
" style="fill:none;stroke:#fdf6e3;"/>
     </g>
     <g id="line2d_69">
      <g>
       <use style="fill:#657b83;stroke:#657b83;stroke-width:0.8;" x="94.140625" xlink:href="#mcd2fe3bd1e" y="105.399467"/>
      </g>
     </g>
     <g id="text_18">
      <!-- 280.0 -->
      <g style="fill:#657b83;" transform="translate(58.5125 109.198686)scale(0.1 -0.1)">
       <use xlink:href="#DejaVuSans-50"/>
       <use x="63.623047" xlink:href="#DejaVuSans-56"/>
       <use x="127.246094" xlink:href="#DejaVuSans-48"/>
       <use x="190.869141" xlink:href="#DejaVuSans-46"/>
       <use x="222.65625" xlink:href="#DejaVuSans-48"/>
      </g>
     </g>
    </g>
    <g id="ytick_16">
     <g id="line2d_70">
      <path clip-path="url(#p97b1719052)" d="M 94.140625 54.9575 
L 1732.650625 54.9575 
" style="fill:none;stroke:#fdf6e3;"/>
     </g>
     <g id="line2d_71">
      <g>
       <use style="fill:#657b83;stroke:#657b83;stroke-width:0.8;" x="94.140625" xlink:href="#mcd2fe3bd1e" y="54.9575"/>
      </g>
     </g>
     <g id="text_19">
      <!-- 300.0 -->
      <defs>
       <path d="M 40.578125 39.3125 
Q 47.65625 37.796875 51.625 33 
Q 55.609375 28.21875 55.609375 21.1875 
Q 55.609375 10.40625 48.1875 4.484375 
Q 40.765625 -1.421875 27.09375 -1.421875 
Q 22.515625 -1.421875 17.65625 -0.515625 
Q 12.796875 0.390625 7.625 2.203125 
L 7.625 11.71875 
Q 11.71875 9.328125 16.59375 8.109375 
Q 21.484375 6.890625 26.8125 6.890625 
Q 36.078125 6.890625 40.9375 10.546875 
Q 45.796875 14.203125 45.796875 21.1875 
Q 45.796875 27.640625 41.28125 31.265625 
Q 36.765625 34.90625 28.71875 34.90625 
L 20.21875 34.90625 
L 20.21875 43.015625 
L 29.109375 43.015625 
Q 36.375 43.015625 40.234375 45.921875 
Q 44.09375 48.828125 44.09375 54.296875 
Q 44.09375 59.90625 40.109375 62.90625 
Q 36.140625 65.921875 28.71875 65.921875 
Q 24.65625 65.921875 20.015625 65.03125 
Q 15.375 64.15625 9.8125 62.3125 
L 9.8125 71.09375 
Q 15.4375 72.65625 20.34375 73.4375 
Q 25.25 74.21875 29.59375 74.21875 
Q 40.828125 74.21875 47.359375 69.109375 
Q 53.90625 64.015625 53.90625 55.328125 
Q 53.90625 49.265625 50.4375 45.09375 
Q 46.96875 40.921875 40.578125 39.3125 
z
" id="DejaVuSans-51"/>
      </defs>
      <g style="fill:#657b83;" transform="translate(58.5125 58.756719)scale(0.1 -0.1)">
       <use xlink:href="#DejaVuSans-51"/>
       <use x="63.623047" xlink:href="#DejaVuSans-48"/>
       <use x="127.246094" xlink:href="#DejaVuSans-48"/>
       <use x="190.869141" xlink:href="#DejaVuSans-46"/>
       <use x="222.65625" xlink:href="#DejaVuSans-48"/>
      </g>
     </g>
    </g>
    <g id="ytick_17">
     <g id="line2d_72">
      <defs>
       <path d="M 0 0 
L -2 0 
" id="m18dac6938a" style="stroke:#657b83;stroke-width:0.6;"/>
      </defs>
      <g>
       <use style="fill:#657b83;stroke:#657b83;stroke-width:0.6;" x="94.140625" xlink:href="#m18dac6938a" y="811.587008"/>
      </g>
     </g>
    </g>
    <g id="ytick_18">
     <g id="line2d_73">
      <g>
       <use style="fill:#657b83;stroke:#657b83;stroke-width:0.6;" x="94.140625" xlink:href="#m18dac6938a" y="786.366025"/>
      </g>
     </g>
    </g>
    <g id="ytick_19">
     <g id="line2d_74">
      <g>
       <use style="fill:#657b83;stroke:#657b83;stroke-width:0.6;" x="94.140625" xlink:href="#m18dac6938a" y="761.145041"/>
      </g>
     </g>
    </g>
    <g id="ytick_20">
     <g id="line2d_75">
      <g>
       <use style="fill:#657b83;stroke:#657b83;stroke-width:0.6;" x="94.140625" xlink:href="#m18dac6938a" y="735.924057"/>
      </g>
     </g>
    </g>
    <g id="ytick_21">
     <g id="line2d_76">
      <g>
       <use style="fill:#657b83;stroke:#657b83;stroke-width:0.6;" x="94.140625" xlink:href="#m18dac6938a" y="710.703074"/>
      </g>
     </g>
    </g>
    <g id="ytick_22">
     <g id="line2d_77">
      <g>
       <use style="fill:#657b83;stroke:#657b83;stroke-width:0.6;" x="94.140625" xlink:href="#m18dac6938a" y="685.48209"/>
      </g>
     </g>
    </g>
    <g id="ytick_23">
     <g id="line2d_78">
      <g>
       <use style="fill:#657b83;stroke:#657b83;stroke-width:0.6;" x="94.140625" xlink:href="#m18dac6938a" y="660.261107"/>
      </g>
     </g>
    </g>
    <g id="ytick_24">
     <g id="line2d_79">
      <g>
       <use style="fill:#657b83;stroke:#657b83;stroke-width:0.6;" x="94.140625" xlink:href="#m18dac6938a" y="635.040123"/>
      </g>
     </g>
    </g>
    <g id="ytick_25">
     <g id="line2d_80">
      <g>
       <use style="fill:#657b83;stroke:#657b83;stroke-width:0.6;" x="94.140625" xlink:href="#m18dac6938a" y="609.819139"/>
      </g>
     </g>
    </g>
    <g id="ytick_26">
     <g id="line2d_81">
      <g>
       <use style="fill:#657b83;stroke:#657b83;stroke-width:0.6;" x="94.140625" xlink:href="#m18dac6938a" y="584.598156"/>
      </g>
     </g>
    </g>
    <g id="ytick_27">
     <g id="line2d_82">
      <g>
       <use style="fill:#657b83;stroke:#657b83;stroke-width:0.6;" x="94.140625" xlink:href="#m18dac6938a" y="559.377172"/>
      </g>
     </g>
    </g>
    <g id="ytick_28">
     <g id="line2d_83">
      <g>
       <use style="fill:#657b83;stroke:#657b83;stroke-width:0.6;" x="94.140625" xlink:href="#m18dac6938a" y="534.156189"/>
      </g>
     </g>
    </g>
    <g id="ytick_29">
     <g id="line2d_84">
      <g>
       <use style="fill:#657b83;stroke:#657b83;stroke-width:0.6;" x="94.140625" xlink:href="#m18dac6938a" y="508.935205"/>
      </g>
     </g>
    </g>
    <g id="ytick_30">
     <g id="line2d_85">
      <g>
       <use style="fill:#657b83;stroke:#657b83;stroke-width:0.6;" x="94.140625" xlink:href="#m18dac6938a" y="483.714221"/>
      </g>
     </g>
    </g>
    <g id="ytick_31">
     <g id="line2d_86">
      <g>
       <use style="fill:#657b83;stroke:#657b83;stroke-width:0.6;" x="94.140625" xlink:href="#m18dac6938a" y="458.493238"/>
      </g>
     </g>
    </g>
    <g id="ytick_32">
     <g id="line2d_87">
      <g>
       <use style="fill:#657b83;stroke:#657b83;stroke-width:0.6;" x="94.140625" xlink:href="#m18dac6938a" y="433.272254"/>
      </g>
     </g>
    </g>
    <g id="ytick_33">
     <g id="line2d_88">
      <g>
       <use style="fill:#657b83;stroke:#657b83;stroke-width:0.6;" x="94.140625" xlink:href="#m18dac6938a" y="408.05127"/>
      </g>
     </g>
    </g>
    <g id="ytick_34">
     <g id="line2d_89">
      <g>
       <use style="fill:#657b83;stroke:#657b83;stroke-width:0.6;" x="94.140625" xlink:href="#m18dac6938a" y="382.830287"/>
      </g>
     </g>
    </g>
    <g id="ytick_35">
     <g id="line2d_90">
      <g>
       <use style="fill:#657b83;stroke:#657b83;stroke-width:0.6;" x="94.140625" xlink:href="#m18dac6938a" y="357.609303"/>
      </g>
     </g>
    </g>
    <g id="ytick_36">
     <g id="line2d_91">
      <g>
       <use style="fill:#657b83;stroke:#657b83;stroke-width:0.6;" x="94.140625" xlink:href="#m18dac6938a" y="332.38832"/>
      </g>
     </g>
    </g>
    <g id="ytick_37">
     <g id="line2d_92">
      <g>
       <use style="fill:#657b83;stroke:#657b83;stroke-width:0.6;" x="94.140625" xlink:href="#m18dac6938a" y="307.167336"/>
      </g>
     </g>
    </g>
    <g id="ytick_38">
     <g id="line2d_93">
      <g>
       <use style="fill:#657b83;stroke:#657b83;stroke-width:0.6;" x="94.140625" xlink:href="#m18dac6938a" y="281.946352"/>
      </g>
     </g>
    </g>
    <g id="ytick_39">
     <g id="line2d_94">
      <g>
       <use style="fill:#657b83;stroke:#657b83;stroke-width:0.6;" x="94.140625" xlink:href="#m18dac6938a" y="256.725369"/>
      </g>
     </g>
    </g>
    <g id="ytick_40">
     <g id="line2d_95">
      <g>
       <use style="fill:#657b83;stroke:#657b83;stroke-width:0.6;" x="94.140625" xlink:href="#m18dac6938a" y="231.504385"/>
      </g>
     </g>
    </g>
    <g id="ytick_41">
     <g id="line2d_96">
      <g>
       <use style="fill:#657b83;stroke:#657b83;stroke-width:0.6;" x="94.140625" xlink:href="#m18dac6938a" y="206.283402"/>
      </g>
     </g>
    </g>
    <g id="ytick_42">
     <g id="line2d_97">
      <g>
       <use style="fill:#657b83;stroke:#657b83;stroke-width:0.6;" x="94.140625" xlink:href="#m18dac6938a" y="181.062418"/>
      </g>
     </g>
    </g>
    <g id="ytick_43">
     <g id="line2d_98">
      <g>
       <use style="fill:#657b83;stroke:#657b83;stroke-width:0.6;" x="94.140625" xlink:href="#m18dac6938a" y="155.841434"/>
      </g>
     </g>
    </g>
    <g id="ytick_44">
     <g id="line2d_99">
      <g>
       <use style="fill:#657b83;stroke:#657b83;stroke-width:0.6;" x="94.140625" xlink:href="#m18dac6938a" y="130.620451"/>
      </g>
     </g>
    </g>
    <g id="ytick_45">
     <g id="line2d_100">
      <g>
       <use style="fill:#657b83;stroke:#657b83;stroke-width:0.6;" x="94.140625" xlink:href="#m18dac6938a" y="105.399467"/>
      </g>
     </g>
    </g>
    <g id="ytick_46">
     <g id="line2d_101">
      <g>
       <use style="fill:#657b83;stroke:#657b83;stroke-width:0.6;" x="94.140625" xlink:href="#m18dac6938a" y="80.178484"/>
      </g>
     </g>
    </g>
    <g id="ytick_47">
     <g id="line2d_102">
      <g>
       <use style="fill:#657b83;stroke:#657b83;stroke-width:0.6;" x="94.140625" xlink:href="#m18dac6938a" y="54.9575"/>
      </g>
     </g>
    </g>
    <g id="text_20">
     <!-- #-of messages transferred -->
     <defs>
      <path d="M 50.875 44 
L 37.109375 44 
L 33.015625 27.6875 
L 46.921875 27.6875 
z
M 44 71.78125 
L 39.015625 51.515625 
L 52.78125 51.515625 
L 57.8125 71.78125 
L 66.21875 71.78125 
L 61.078125 51.515625 
L 76.125 51.515625 
L 76.125 44 
L 59.1875 44 
L 55.171875 27.6875 
L 70.515625 27.6875 
L 70.515625 20.21875 
L 53.328125 20.21875 
L 48.296875 0 
L 39.890625 0 
L 45.015625 20.21875 
L 31.203125 20.21875 
L 26.125 0 
L 17.828125 0 
L 22.796875 20.21875 
L 7.71875 20.21875 
L 7.71875 27.6875 
L 24.703125 27.6875 
L 28.71875 44 
L 13.28125 44 
L 13.28125 51.515625 
L 30.609375 51.515625 
L 35.6875 71.78125 
z
" id="DejaVuSerif-35"/>
      <path d="M 4.390625 30.609375 
L 29.390625 30.609375 
L 29.390625 23 
L 4.390625 23 
z
" id="DejaVuSerif-45"/>
      <path d="M 30.078125 3.421875 
Q 37.3125 3.421875 40.984375 9.125 
Q 44.671875 14.84375 44.671875 25.984375 
Q 44.671875 37.109375 40.984375 42.796875 
Q 37.3125 48.484375 30.078125 48.484375 
Q 22.859375 48.484375 19.171875 42.796875 
Q 15.484375 37.109375 15.484375 25.984375 
Q 15.484375 14.84375 19.1875 9.125 
Q 22.90625 3.421875 30.078125 3.421875 
z
M 30.078125 -1.421875 
Q 18.75 -1.421875 11.859375 6.078125 
Q 4.984375 13.578125 4.984375 25.984375 
Q 4.984375 38.375 11.84375 45.84375 
Q 18.703125 53.328125 30.078125 53.328125 
Q 41.453125 53.328125 48.3125 45.84375 
Q 55.171875 38.375 55.171875 25.984375 
Q 55.171875 13.578125 48.3125 6.078125 
Q 41.453125 -1.421875 30.078125 -1.421875 
z
" id="DejaVuSerif-111"/>
      <path d="M 43.015625 63.71875 
L 38.28125 63.71875 
Q 38.234375 67.390625 36.203125 69.28125 
Q 34.1875 71.1875 30.328125 71.1875 
Q 25.296875 71.1875 23.234375 68.421875 
Q 21.1875 65.671875 21.1875 58.59375 
L 21.1875 51.90625 
L 35.6875 51.90625 
L 35.6875 46.6875 
L 21.1875 46.6875 
L 21.1875 5.171875 
L 32.71875 5.171875 
L 32.71875 0 
L 3.609375 0 
L 3.609375 5.171875 
L 12.203125 5.171875 
L 12.203125 46.6875 
L 3.609375 46.6875 
L 3.609375 51.90625 
L 12.203125 51.90625 
L 12.203125 58.40625 
Q 12.203125 67.09375 16.71875 71.53125 
Q 21.234375 75.984375 29.984375 75.984375 
Q 33.25 75.984375 36.515625 75.390625 
Q 39.796875 74.8125 43.015625 73.578125 
z
" id="DejaVuSerif-102"/>
      <path id="DejaVuSerif-32"/>
      <path d="M 5.609375 2.875 
L 5.609375 14.984375 
L 10.796875 14.984375 
Q 10.984375 9.1875 14.421875 6.296875 
Q 17.875 3.421875 24.609375 3.421875 
Q 30.671875 3.421875 33.84375 5.6875 
Q 37.015625 7.953125 37.015625 12.3125 
Q 37.015625 15.71875 34.6875 17.8125 
Q 32.375 19.921875 24.90625 22.3125 
L 18.40625 24.515625 
Q 11.71875 26.65625 8.71875 29.875 
Q 5.71875 33.109375 5.71875 38.09375 
Q 5.71875 45.21875 10.9375 49.265625 
Q 16.15625 53.328125 25.390625 53.328125 
Q 29.5 53.328125 34.03125 52.25 
Q 38.578125 51.171875 43.40625 49.125 
L 43.40625 37.796875 
L 38.234375 37.796875 
Q 38.03125 42.828125 34.703125 45.65625 
Q 31.390625 48.484375 25.6875 48.484375 
Q 20.015625 48.484375 17.109375 46.484375 
Q 14.203125 44.484375 14.203125 40.484375 
Q 14.203125 37.203125 16.40625 35.21875 
Q 18.609375 33.25 25.203125 31.203125 
L 32.328125 29 
Q 39.703125 26.703125 42.9375 23.265625 
Q 46.1875 19.828125 46.1875 14.40625 
Q 46.1875 7.03125 40.546875 2.796875 
Q 34.90625 -1.421875 25 -1.421875 
Q 19.96875 -1.421875 15.1875 -0.34375 
Q 10.40625 0.734375 5.609375 2.875 
z
" id="DejaVuSerif-115"/>
      <path d="M 39.796875 16.3125 
L 39.796875 27.296875 
L 28.21875 27.296875 
Q 21.53125 27.296875 18.25 24.40625 
Q 14.984375 21.53125 14.984375 15.578125 
Q 14.984375 10.15625 18.296875 6.984375 
Q 21.625 3.8125 27.296875 3.8125 
Q 32.90625 3.8125 36.34375 7.28125 
Q 39.796875 10.75 39.796875 16.3125 
z
M 48.78125 32.421875 
L 48.78125 5.171875 
L 56.78125 5.171875 
L 56.78125 0 
L 39.796875 0 
L 39.796875 5.609375 
Q 36.8125 2 32.90625 0.28125 
Q 29 -1.421875 23.78125 -1.421875 
Q 15.140625 -1.421875 10.0625 3.171875 
Q 4.984375 7.765625 4.984375 15.578125 
Q 4.984375 23.640625 10.796875 28.078125 
Q 16.609375 32.515625 27.203125 32.515625 
L 39.796875 32.515625 
L 39.796875 36.078125 
Q 39.796875 42 36.203125 45.234375 
Q 32.625 48.484375 26.125 48.484375 
Q 20.75 48.484375 17.578125 46.046875 
Q 14.40625 43.609375 13.625 38.8125 
L 8.984375 38.8125 
L 8.984375 49.3125 
Q 13.671875 51.3125 18.09375 52.3125 
Q 22.515625 53.328125 26.703125 53.328125 
Q 37.5 53.328125 43.140625 47.96875 
Q 48.78125 42.625 48.78125 32.421875 
z
" id="DejaVuSerif-97"/>
      <path d="M 52.484375 46.6875 
L 52.484375 1.125 
Q 52.484375 -10.0625 46.328125 -16.140625 
Q 40.1875 -22.21875 28.8125 -22.21875 
Q 23.6875 -22.21875 19 -21.28125 
Q 14.3125 -20.359375 10.015625 -18.5 
L 10.015625 -7.625 
L 14.703125 -7.625 
Q 15.578125 -12.703125 18.84375 -15.046875 
Q 22.125 -17.390625 28.21875 -17.390625 
Q 36.140625 -17.390625 39.8125 -12.921875 
Q 43.5 -8.453125 43.5 1.125 
L 43.5 8.109375 
Q 40.875 3.21875 36.796875 0.890625 
Q 32.71875 -1.421875 26.703125 -1.421875 
Q 17.140625 -1.421875 11.0625 6.171875 
Q 4.984375 13.765625 4.984375 25.984375 
Q 4.984375 38.1875 11.03125 45.75 
Q 17.09375 53.328125 26.703125 53.328125 
Q 32.71875 53.328125 36.796875 51 
Q 40.875 48.6875 43.5 43.796875 
L 43.5 51.90625 
L 61.078125 51.90625 
L 61.078125 46.6875 
z
M 43.5 28.515625 
Q 43.5 37.84375 39.90625 42.765625 
Q 36.328125 47.703125 29.5 47.703125 
Q 22.5625 47.703125 19.015625 42.234375 
Q 15.484375 36.765625 15.484375 25.984375 
Q 15.484375 15.234375 19.015625 9.71875 
Q 22.5625 4.203125 29.5 4.203125 
Q 36.328125 4.203125 39.90625 9.109375 
Q 43.5 14.015625 43.5 23.390625 
z
" id="DejaVuSerif-103"/>
      <path d="M 10.796875 46.6875 
L 2.875 46.6875 
L 2.875 51.90625 
L 10.796875 51.90625 
L 10.796875 68.015625 
L 19.828125 68.015625 
L 19.828125 51.90625 
L 36.71875 51.90625 
L 36.71875 46.6875 
L 19.828125 46.6875 
L 19.828125 13.71875 
Q 19.828125 7.125 21.09375 5.265625 
Q 22.359375 3.421875 25.78125 3.421875 
Q 29.296875 3.421875 30.90625 5.484375 
Q 32.515625 7.5625 32.625 12.203125 
L 39.40625 12.203125 
Q 39.015625 5.125 35.546875 1.84375 
Q 32.078125 -1.421875 25 -1.421875 
Q 17.234375 -1.421875 14.015625 2.015625 
Q 10.796875 5.46875 10.796875 13.71875 
z
" id="DejaVuSerif-116"/>
      <path d="M 47.796875 52 
L 47.796875 39.015625 
L 42.625 39.015625 
Q 42.390625 42.875 40.484375 44.78125 
Q 38.578125 46.6875 34.90625 46.6875 
Q 28.265625 46.6875 24.71875 42.09375 
Q 21.1875 37.5 21.1875 28.90625 
L 21.1875 5.171875 
L 31.59375 5.171875 
L 31.59375 0 
L 4.109375 0 
L 4.109375 5.171875 
L 12.203125 5.171875 
L 12.203125 46.78125 
L 3.609375 46.78125 
L 3.609375 51.90625 
L 21.1875 51.90625 
L 21.1875 42.671875 
Q 23.828125 48.09375 27.96875 50.703125 
Q 32.125 53.328125 38.09375 53.328125 
Q 40.28125 53.328125 42.703125 52.984375 
Q 45.125 52.640625 47.796875 52 
z
" id="DejaVuSerif-114"/>
      <path d="M 4.109375 0 
L 4.109375 5.171875 
L 12.203125 5.171875 
L 12.203125 46.6875 
L 3.609375 46.6875 
L 3.609375 51.90625 
L 21.1875 51.90625 
L 21.1875 42.671875 
Q 23.6875 47.953125 27.65625 50.640625 
Q 31.640625 53.328125 36.921875 53.328125 
Q 45.515625 53.328125 49.5625 48.390625 
Q 53.609375 43.453125 53.609375 33.015625 
L 53.609375 5.171875 
L 61.625 5.171875 
L 61.625 0 
L 36.8125 0 
L 36.8125 5.171875 
L 44.578125 5.171875 
L 44.578125 30.171875 
Q 44.578125 39.703125 42.234375 43.234375 
Q 39.890625 46.78125 33.984375 46.78125 
Q 27.734375 46.78125 24.453125 42.203125 
Q 21.1875 37.640625 21.1875 28.90625 
L 21.1875 5.171875 
L 29 5.171875 
L 29 0 
z
" id="DejaVuSerif-110"/>
      <path d="M 52.484375 5.171875 
L 61.078125 5.171875 
L 61.078125 0 
L 43.5 0 
L 43.5 8.109375 
Q 40.875 3.21875 36.796875 0.890625 
Q 32.71875 -1.421875 26.703125 -1.421875 
Q 17.140625 -1.421875 11.0625 6.171875 
Q 4.984375 13.765625 4.984375 25.984375 
Q 4.984375 38.1875 11.03125 45.75 
Q 17.09375 53.328125 26.703125 53.328125 
Q 32.71875 53.328125 36.796875 51 
Q 40.875 48.6875 43.5 43.796875 
L 43.5 70.796875 
L 35.015625 70.796875 
L 35.015625 75.984375 
L 52.484375 75.984375 
z
M 43.5 23.390625 
L 43.5 28.515625 
Q 43.5 37.84375 39.90625 42.765625 
Q 36.328125 47.703125 29.5 47.703125 
Q 22.5625 47.703125 19.015625 42.234375 
Q 15.484375 36.765625 15.484375 25.984375 
Q 15.484375 15.234375 19.015625 9.71875 
Q 22.5625 4.203125 29.5 4.203125 
Q 36.328125 4.203125 39.90625 9.109375 
Q 43.5 14.015625 43.5 23.390625 
z
" id="DejaVuSerif-100"/>
     </defs>
     <g transform="translate(40.9575 547.37625)rotate(-90)scale(0.16 -0.16)">
      <use xlink:href="#DejaVuSerif-35"/>
      <use x="83.789062" xlink:href="#DejaVuSerif-45"/>
      <use x="117.578125" xlink:href="#DejaVuSerif-111"/>
      <use x="177.783203" xlink:href="#DejaVuSerif-102"/>
      <use x="214.794922" xlink:href="#DejaVuSerif-32"/>
      <use x="246.582031" xlink:href="#DejaVuSerif-109"/>
      <use x="341.40625" xlink:href="#DejaVuSerif-101"/>
      <use x="400.585938" xlink:href="#DejaVuSerif-115"/>
      <use x="451.904297" xlink:href="#DejaVuSerif-115"/>
      <use x="503.222656" xlink:href="#DejaVuSerif-97"/>
      <use x="562.841797" xlink:href="#DejaVuSerif-103"/>
      <use x="626.855469" xlink:href="#DejaVuSerif-101"/>
      <use x="686.035156" xlink:href="#DejaVuSerif-115"/>
      <use x="737.353516" xlink:href="#DejaVuSerif-32"/>
      <use x="769.140625" xlink:href="#DejaVuSerif-116"/>
      <use x="809.326172" xlink:href="#DejaVuSerif-114"/>
      <use x="857.128906" xlink:href="#DejaVuSerif-97"/>
      <use x="916.748047" xlink:href="#DejaVuSerif-110"/>
      <use x="981.152344" xlink:href="#DejaVuSerif-115"/>
      <use x="1032.470703" xlink:href="#DejaVuSerif-102"/>
      <use x="1069.482422" xlink:href="#DejaVuSerif-101"/>
      <use x="1128.662109" xlink:href="#DejaVuSerif-114"/>
      <use x="1176.464844" xlink:href="#DejaVuSerif-114"/>
      <use x="1224.267578" xlink:href="#DejaVuSerif-101"/>
      <use x="1283.447266" xlink:href="#DejaVuSerif-100"/>
     </g>
    </g>
   </g>
   <g id="line2d_103">
    <path clip-path="url(#p97b1719052)" d="M 168.618352 788.888123 
L 401.36125 793.93232 
L 494.458409 766.189238 
L 727.201307 804.020713 
L 820.298466 771.233434 
L 866.847045 798.976516 
L 913.395625 809.06491 
L 959.944205 801.498615 
L 1053.041364 657.739008 
L 1099.589943 783.843926 
L 1146.138523 511.457303 
L 1192.687102 627.473828 
L 1239.235682 705.658877 
L 1285.784261 761.145041 
L 1332.332841 657.739008 
L 1378.88142 708.180975 
L 1471.97858 753.578746 
L 1518.527159 783.843926 
L 1565.075739 234.026484 
L 1611.624318 67.567992 
L 1658.172898 771.233434 
" style="fill:none;stroke:#ff0000;stroke-width:0.8;"/>
    <defs>
     <path d="M 0 3 
C 0.795609 3 1.55874 2.683901 2.12132 2.12132 
C 2.683901 1.55874 3 0.795609 3 0 
C 3 -0.795609 2.683901 -1.55874 2.12132 -2.12132 
C 1.55874 -2.683901 0.795609 -3 0 -3 
C -0.795609 -3 -1.55874 -2.683901 -2.12132 -2.12132 
C -2.683901 -1.55874 -3 -0.795609 -3 0 
C -3 0.795609 -2.683901 1.55874 -2.12132 2.12132 
C -1.55874 2.683901 -0.795609 3 0 3 
z
" id="ma5eb80ec15" style="stroke:#ff0000;"/>
    </defs>
    <g clip-path="url(#p97b1719052)">
     <use style="fill:#ff0000;stroke:#ff0000;" x="168.618352" xlink:href="#ma5eb80ec15" y="788.888123"/>
     <use style="fill:#ff0000;stroke:#ff0000;" x="401.36125" xlink:href="#ma5eb80ec15" y="793.93232"/>
     <use style="fill:#ff0000;stroke:#ff0000;" x="494.458409" xlink:href="#ma5eb80ec15" y="766.189238"/>
     <use style="fill:#ff0000;stroke:#ff0000;" x="727.201307" xlink:href="#ma5eb80ec15" y="804.020713"/>
     <use style="fill:#ff0000;stroke:#ff0000;" x="820.298466" xlink:href="#ma5eb80ec15" y="771.233434"/>
     <use style="fill:#ff0000;stroke:#ff0000;" x="866.847045" xlink:href="#ma5eb80ec15" y="798.976516"/>
     <use style="fill:#ff0000;stroke:#ff0000;" x="913.395625" xlink:href="#ma5eb80ec15" y="809.06491"/>
     <use style="fill:#ff0000;stroke:#ff0000;" x="959.944205" xlink:href="#ma5eb80ec15" y="801.498615"/>
     <use style="fill:#ff0000;stroke:#ff0000;" x="1053.041364" xlink:href="#ma5eb80ec15" y="657.739008"/>
     <use style="fill:#ff0000;stroke:#ff0000;" x="1099.589943" xlink:href="#ma5eb80ec15" y="783.843926"/>
     <use style="fill:#ff0000;stroke:#ff0000;" x="1146.138523" xlink:href="#ma5eb80ec15" y="511.457303"/>
     <use style="fill:#ff0000;stroke:#ff0000;" x="1192.687102" xlink:href="#ma5eb80ec15" y="627.473828"/>
     <use style="fill:#ff0000;stroke:#ff0000;" x="1239.235682" xlink:href="#ma5eb80ec15" y="705.658877"/>
     <use style="fill:#ff0000;stroke:#ff0000;" x="1285.784261" xlink:href="#ma5eb80ec15" y="761.145041"/>
     <use style="fill:#ff0000;stroke:#ff0000;" x="1332.332841" xlink:href="#ma5eb80ec15" y="657.739008"/>
     <use style="fill:#ff0000;stroke:#ff0000;" x="1378.88142" xlink:href="#ma5eb80ec15" y="708.180975"/>
     <use style="fill:#ff0000;stroke:#ff0000;" x="1471.97858" xlink:href="#ma5eb80ec15" y="753.578746"/>
     <use style="fill:#ff0000;stroke:#ff0000;" x="1518.527159" xlink:href="#ma5eb80ec15" y="783.843926"/>
     <use style="fill:#ff0000;stroke:#ff0000;" x="1565.075739" xlink:href="#ma5eb80ec15" y="234.026484"/>
     <use style="fill:#ff0000;stroke:#ff0000;" x="1611.624318" xlink:href="#ma5eb80ec15" y="67.567992"/>
     <use style="fill:#ff0000;stroke:#ff0000;" x="1658.172898" xlink:href="#ma5eb80ec15" y="771.233434"/>
    </g>
   </g>
   <g id="patch_3">
    <path d="M 94.140625 824.1975 
L 94.140625 54.9575 
" style="fill:none;stroke:#eee8d5;stroke-linecap:square;stroke-linejoin:miter;stroke-width:0.8;"/>
   </g>
   <g id="patch_4">
    <path d="M 1732.650625 824.1975 
L 1732.650625 54.9575 
" style="fill:none;stroke:#eee8d5;stroke-linecap:square;stroke-linejoin:miter;stroke-width:0.8;"/>
   </g>
   <g id="patch_5">
    <path d="M 94.140625 824.1975 
L 1732.650625 824.1975 
" style="fill:none;stroke:#eee8d5;stroke-linecap:square;stroke-linejoin:miter;stroke-width:0.8;"/>
   </g>
   <g id="patch_6">
    <path d="M 94.140625 54.9575 
L 1732.650625 54.9575 
" style="fill:none;stroke:#eee8d5;stroke-linecap:square;stroke-linejoin:miter;stroke-width:0.8;"/>
   </g>
   <g id="text_21">
    <!-- Daily Activeness Of a Private Chat -->
    <defs>
     <path d="M 24.703125 5.171875 
L 33.796875 5.171875 
Q 48 5.171875 55.59375 13.28125 
Q 63.1875 21.390625 63.1875 36.53125 
Q 63.1875 51.65625 55.609375 59.65625 
Q 48.046875 67.671875 33.796875 67.671875 
L 24.703125 67.671875 
z
M 5.515625 0 
L 5.515625 5.171875 
L 14.796875 5.171875 
L 14.796875 67.671875 
L 5.515625 67.671875 
L 5.515625 72.90625 
L 34.515625 72.90625 
Q 53.375 72.90625 63.890625 63.28125 
Q 74.421875 53.65625 74.421875 36.53125 
Q 74.421875 19.34375 63.875 9.671875 
Q 53.328125 0 34.515625 0 
z
" id="DejaVuSerif-68"/>
     <path d="M 20.515625 5.171875 
L 29 5.171875 
L 29 0 
L 2.875 0 
L 2.875 5.171875 
L 11.53125 5.171875 
L 11.53125 70.796875 
L 2.875 70.796875 
L 2.875 75.984375 
L 20.515625 75.984375 
z
" id="DejaVuSerif-108"/>
     <path d="M 21.578125 -9.515625 
L 25 -0.875 
L 5.609375 46.6875 
L -0.296875 46.6875 
L -0.296875 51.90625 
L 23.578125 51.90625 
L 23.578125 46.6875 
L 15.28125 46.6875 
L 29.890625 10.984375 
L 44.484375 46.6875 
L 36.71875 46.6875 
L 36.71875 51.90625 
L 56.203125 51.90625 
L 56.203125 46.6875 
L 50.390625 46.6875 
L 26.609375 -11.71875 
Q 24.171875 -17.78125 21.1875 -20 
Q 18.21875 -22.21875 12.796875 -22.21875 
Q 10.5 -22.21875 8.078125 -21.828125 
Q 5.671875 -21.4375 3.21875 -20.703125 
L 3.21875 -10.796875 
L 7.8125 -10.796875 
Q 8.109375 -14.109375 9.5 -15.546875 
Q 10.890625 -17 13.8125 -17 
Q 16.5 -17 18.140625 -15.5 
Q 19.78125 -14.015625 21.578125 -9.515625 
z
" id="DejaVuSerif-121"/>
     <path d="M 20.015625 26.421875 
L 46.78125 26.421875 
L 33.40625 61.078125 
z
M -0.59375 0 
L -0.59375 5.171875 
L 5.8125 5.171875 
L 31.78125 72.90625 
L 39.984375 72.90625 
L 66.015625 5.171875 
L 73.1875 5.171875 
L 73.1875 0 
L 46.6875 0 
L 46.6875 5.171875 
L 54.78125 5.171875 
L 48.6875 21.1875 
L 18.015625 21.1875 
L 11.921875 5.171875 
L 19.921875 5.171875 
L 19.921875 0 
z
" id="DejaVuSerif-65"/>
     <path d="M 51.421875 15.578125 
Q 49.515625 7.28125 44.09375 2.921875 
Q 38.671875 -1.421875 30.078125 -1.421875 
Q 18.75 -1.421875 11.859375 6.078125 
Q 4.984375 13.578125 4.984375 25.984375 
Q 4.984375 38.421875 11.859375 45.875 
Q 18.75 53.328125 30.078125 53.328125 
Q 35.015625 53.328125 39.890625 52.171875 
Q 44.78125 51.03125 49.703125 48.6875 
L 49.703125 35.40625 
L 44.484375 35.40625 
Q 43.453125 42.234375 40.015625 45.359375 
Q 36.578125 48.484375 30.171875 48.484375 
Q 22.90625 48.484375 19.1875 42.84375 
Q 15.484375 37.203125 15.484375 25.984375 
Q 15.484375 14.75 19.171875 9.078125 
Q 22.859375 3.421875 30.171875 3.421875 
Q 35.984375 3.421875 39.453125 6.4375 
Q 42.921875 9.46875 44.1875 15.578125 
z
" id="DejaVuSerif-99"/>
     <path d="M 24.703125 0 
L 5.609375 46.6875 
L -0.296875 46.6875 
L -0.296875 51.90625 
L 23.578125 51.90625 
L 23.578125 46.6875 
L 15.28125 46.6875 
L 29.890625 10.984375 
L 44.484375 46.6875 
L 36.71875 46.6875 
L 36.71875 51.90625 
L 56.203125 51.90625 
L 56.203125 46.6875 
L 50.390625 46.6875 
L 31.296875 0 
z
" id="DejaVuSerif-118"/>
     <path d="M 41.015625 3.8125 
Q 52.984375 3.8125 59.078125 12.03125 
Q 65.1875 20.265625 65.1875 36.375 
Q 65.1875 52.546875 59.078125 60.765625 
Q 52.984375 69 41.015625 69 
Q 29 69 22.890625 60.765625 
Q 16.796875 52.546875 16.796875 36.375 
Q 16.796875 20.265625 22.890625 12.03125 
Q 29 3.8125 41.015625 3.8125 
z
M 41.015625 -1.421875 
Q 33.59375 -1.421875 27.359375 1.015625 
Q 21.140625 3.46875 16.40625 8.203125 
Q 10.9375 13.671875 8.265625 20.609375 
Q 5.609375 27.546875 5.609375 36.375 
Q 5.609375 45.21875 8.265625 52.171875 
Q 10.9375 59.125 16.40625 64.59375 
Q 21.1875 69.390625 27.34375 71.796875 
Q 33.5 74.21875 41.015625 74.21875 
Q 56.890625 74.21875 66.65625 63.8125 
Q 76.421875 53.421875 76.421875 36.375 
Q 76.421875 27.640625 73.734375 20.625 
Q 71.046875 13.625 65.578125 8.203125 
Q 60.796875 3.421875 54.640625 1 
Q 48.484375 -1.421875 41.015625 -1.421875 
z
" id="DejaVuSerif-79"/>
     <path d="M 24.703125 37.109375 
L 37.59375 37.109375 
Q 44.875 37.109375 48.671875 41.03125 
Q 52.484375 44.96875 52.484375 52.390625 
Q 52.484375 59.859375 48.671875 63.765625 
Q 44.875 67.671875 37.59375 67.671875 
L 24.703125 67.671875 
z
M 5.515625 0 
L 5.515625 5.171875 
L 14.796875 5.171875 
L 14.796875 67.671875 
L 5.515625 67.671875 
L 5.515625 72.90625 
L 39.984375 72.90625 
Q 50.921875 72.90625 57.3125 67.359375 
Q 63.71875 61.8125 63.71875 52.390625 
Q 63.71875 43.015625 57.3125 37.453125 
Q 50.921875 31.890625 39.984375 31.890625 
L 24.703125 31.890625 
L 24.703125 5.171875 
L 35.984375 5.171875 
L 35.984375 0 
z
" id="DejaVuSerif-80"/>
     <path d="M 70.515625 19.28125 
Q 67.28125 9.078125 59.6875 3.828125 
Q 52.09375 -1.421875 40.484375 -1.421875 
Q 33.34375 -1.421875 27.234375 1.015625 
Q 21.140625 3.46875 16.40625 8.203125 
Q 10.9375 13.671875 8.265625 20.625 
Q 5.609375 27.59375 5.609375 36.375 
Q 5.609375 53.375 15.421875 63.796875 
Q 25.25 74.21875 41.3125 74.21875 
Q 47.265625 74.21875 54 72.65625 
Q 60.75 71.09375 68.5 67.921875 
L 68.5 51.125 
L 62.984375 51.125 
Q 61.1875 60.296875 55.734375 64.640625 
Q 50.296875 69 40.484375 69 
Q 28.8125 69 22.796875 60.71875 
Q 16.796875 52.4375 16.796875 36.375 
Q 16.796875 20.359375 22.796875 12.078125 
Q 28.8125 3.8125 40.484375 3.8125 
Q 48.640625 3.8125 53.90625 7.6875 
Q 59.1875 11.578125 61.53125 19.28125 
z
" id="DejaVuSerif-67"/>
     <path d="M 4.109375 0 
L 4.109375 5.171875 
L 12.203125 5.171875 
L 12.203125 70.796875 
L 3.609375 70.796875 
L 3.609375 75.984375 
L 21.1875 75.984375 
L 21.1875 42.671875 
Q 23.6875 47.953125 27.65625 50.640625 
Q 31.640625 53.328125 36.921875 53.328125 
Q 45.515625 53.328125 49.5625 48.390625 
Q 53.609375 43.453125 53.609375 33.015625 
L 53.609375 5.171875 
L 61.625 5.171875 
L 61.625 0 
L 36.8125 0 
L 36.8125 5.171875 
L 44.578125 5.171875 
L 44.578125 30.171875 
Q 44.578125 39.703125 42.25 43.1875 
Q 39.9375 46.6875 33.984375 46.6875 
Q 27.734375 46.6875 24.453125 42.140625 
Q 21.1875 37.59375 21.1875 28.90625 
L 21.1875 5.171875 
L 29 5.171875 
L 29 0 
z
" id="DejaVuSerif-104"/>
    </defs>
    <g transform="translate(773.924375 40.9575)scale(0.16 -0.16)">
     <use xlink:href="#DejaVuSerif-68"/>
     <use x="80.175781" xlink:href="#DejaVuSerif-97"/>
     <use x="139.794922" xlink:href="#DejaVuSerif-105"/>
     <use x="171.777344" xlink:href="#DejaVuSerif-108"/>
     <use x="203.759766" xlink:href="#DejaVuSerif-121"/>
     <use x="260.253906" xlink:href="#DejaVuSerif-32"/>
     <use x="292.041016" xlink:href="#DejaVuSerif-65"/>
     <use x="364.257812" xlink:href="#DejaVuSerif-99"/>
     <use x="420.263672" xlink:href="#DejaVuSerif-116"/>
     <use x="460.449219" xlink:href="#DejaVuSerif-105"/>
     <use x="492.431641" xlink:href="#DejaVuSerif-118"/>
     <use x="548.925781" xlink:href="#DejaVuSerif-101"/>
     <use x="608.105469" xlink:href="#DejaVuSerif-110"/>
     <use x="672.509766" xlink:href="#DejaVuSerif-101"/>
     <use x="731.689453" xlink:href="#DejaVuSerif-115"/>
     <use x="783.007812" xlink:href="#DejaVuSerif-115"/>
     <use x="834.326172" xlink:href="#DejaVuSerif-32"/>
     <use x="866.113281" xlink:href="#DejaVuSerif-79"/>
     <use x="948.095703" xlink:href="#DejaVuSerif-102"/>
     <use x="985.107422" xlink:href="#DejaVuSerif-32"/>
     <use x="1016.894531" xlink:href="#DejaVuSerif-97"/>
     <use x="1076.513672" xlink:href="#DejaVuSerif-32"/>
     <use x="1108.300781" xlink:href="#DejaVuSerif-80"/>
     <use x="1175.585938" xlink:href="#DejaVuSerif-114"/>
     <use x="1223.388672" xlink:href="#DejaVuSerif-105"/>
     <use x="1255.371094" xlink:href="#DejaVuSerif-118"/>
     <use x="1311.865234" xlink:href="#DejaVuSerif-97"/>
     <use x="1371.484375" xlink:href="#DejaVuSerif-116"/>
     <use x="1411.669922" xlink:href="#DejaVuSerif-101"/>
     <use x="1470.849609" xlink:href="#DejaVuSerif-32"/>
     <use x="1502.636719" xlink:href="#DejaVuSerif-67"/>
     <use x="1579.150391" xlink:href="#DejaVuSerif-104"/>
     <use x="1643.554688" xlink:href="#DejaVuSerif-97"/>
     <use x="1703.173828" xlink:href="#DejaVuSerif-116"/>
    </g>
   </g>
  </g>
 </g>
 <defs>
  <clipPath id="p97b1719052">
   <rect height="769.24" width="1638.51" x="94.140625" y="54.9575"/>
  </clipPath>
 </defs>
</svg>
